# xmcd
#
# Track frame offsets:
# 150
# 14990
# 32663
# 42730
# 57262
# 70463
# 85944
# 98779
# 108510
# 131353
# 151770
#
# Disc length: 2243 seconds
#
#
# Revision: 0
# Processed by: cddbd v1.5.2PL0 Copyright (c) Steve Scherf et al.
# Submitted via: FreeRIP 2.951 
#
DISCID=9508c10b
DTITLE=Little Feat - Sailin' Shoes
DYEAR=1972
DGENRE=Blues
TTITLE0=Easy to Slip
TTITLE1=Cold Cold Cold
TTITLE2=Trouble
TTITLE3=Tripe Face Boogie
TTITLE4=Willin´
TTITLE5=Apolitical Blues
TTITLE6=Sailin' Shoes
TTITLE7=Teenage Nervous Breakdown
TTITLE8=Got No Shadow
TTITLE9=Cat Fever
TTITLE10=Texas Rose Cafe
EXTD=
EXTT0=
EXTT1=
EXTT2=
EXTT3=
EXTT4=
EXTT5=
EXTT6=
EXTT7=
EXTT8=
EXTT9=
EXTT10=
PLAYORDER=
